<svg xmlns="http://www.w3.org/2000/svg" viewBox="0 0 1600 1000" role="img" aria-label="General arrangement of the kiln request flow: six subsystems on a drafted plane, each dimensioned with its measured result"><style>text{font-family:"Big Shoulders Display","Archivo Narrow","Arial Narrow",sans-serif;fill:#eaf0fa;text-anchor:middle}.label{font-size:24.2px;font-weight:700;letter-spacing:.06em}.stack{font-family:"IBM Plex Mono",ui-monospace,monospace;font-size:12.1px;fill:#eaf0fa;opacity:.8}.value{font-size:28.6px;font-weight:700;fill:#ff7a1a}.measure{font-family:"IBM Plex Mono",ui-monospace,monospace;font-size:12.1px;fill:#ff7a1a;opacity:.9}.tbk{font-family:"IBM Plex Mono",ui-monospace,monospace;font-size:10px;text-anchor:start;opacity:.7}.tbv{font-size:18px;font-weight:700;text-anchor:start;letter-spacing:.04em}.big{font-size:24px}.accent{fill:#ff7a1a}.stamp{font-size:22px;font-weight:800;letter-spacing:.12em;fill:#ff7a1a}</style><rect width="1600" height="1000" fill="#123566"/><rect x="28" y="28" width="1544" height="944" fill="none" stroke="#eaf0fa" stroke-width="1.4"/><path d="M617.4 149.4L36.8 439.7" fill="none" stroke="rgba(234, 240, 250, 0.32)" stroke-width="1"/><path d="M681.9 181.6L101.3 472.0" fill="none" stroke="rgba(234, 240, 250, 0.32)" stroke-width="1"/><path d="M746.5 213.9L165.8 504.2" fill="none" stroke="rgba(234, 240, 250, 0.32)" stroke-width="1"/><path d="M811.0 246.2L230.3 536.5" fill="none" stroke="rgba(234, 240, 250, 0.32)" stroke-width="1"/><path d="M875.5 278.4L294.8 568.7" fill="none" stroke="rgba(234, 240, 250, 0.32)" stroke-width="1"/><path d="M940.0 310.7L359.3 601.0" fill="none" stroke="rgba(234, 240, 250, 0.32)" stroke-width="1"/><path d="M1004.5 342.9L423.9 633.3" fill="none" stroke="rgba(234, 240, 250, 0.32)" stroke-width="1"/><path d="M1069.0 375.2L488.4 665.5" fill="none" stroke="rgba(234, 240, 250, 0.32)" stroke-width="1"/><path d="M1133.6 407.5L552.9 697.8" fill="none" stroke="rgba(234, 240, 250, 0.32)" stroke-width="1"/><path d="M1198.1 439.7L617.4 730.0" fill="none" stroke="rgba(234, 240, 250, 0.32)" stroke-width="1"/><path d="M1262.6 472.0L681.9 762.3" fill="none" stroke="rgba(234, 240, 250, 0.32)" stroke-width="1"/><path d="M1327.1 504.2L746.5 794.6" fill="none" stroke="rgba(234, 240, 250, 0.32)" stroke-width="1"/><path d="M1391.6 536.5L811.0 826.8" fill="none" stroke="rgba(234, 240, 250, 0.32)" stroke-width="1"/><path d="M1456.1 568.7L875.5 859.1" fill="none" stroke="rgba(234, 240, 250, 0.32)" stroke-width="1"/><path d="M1520.7 601.0L940.0 891.3" fill="none" stroke="rgba(234, 240, 250, 0.32)" stroke-width="1"/><path d="M617.4 149.4L1520.7 601.0" fill="none" stroke="rgba(234, 240, 250, 0.32)" stroke-width="1"/><path d="M552.9 181.6L1456.1 633.3" fill="none" stroke="rgba(234, 240, 250, 0.32)" stroke-width="1"/><path d="M488.4 213.9L1391.6 665.5" fill="none" stroke="rgba(234, 240, 250, 0.32)" stroke-width="1"/><path d="M423.9 246.2L1327.1 697.8" fill="none" stroke="rgba(234, 240, 250, 0.32)" stroke-width="1"/><path d="M359.3 278.4L1262.6 730.0" fill="none" stroke="rgba(234, 240, 250, 0.32)" stroke-width="1"/><path d="M294.8 310.7L1198.1 762.3" fill="none" stroke="rgba(234, 240, 250, 0.32)" stroke-width="1"/><path d="M230.3 342.9L1133.6 794.6" fill="none" stroke="rgba(234, 240, 250, 0.32)" stroke-width="1"/><path d="M165.8 375.2L1069.0 826.8" fill="none" stroke="rgba(234, 240, 250, 0.32)" stroke-width="1"/><path d="M101.3 407.5L1004.5 859.1" fill="none" stroke="rgba(234, 240, 250, 0.32)" stroke-width="1"/><path d="M36.8 439.7L940.0 891.3" fill="none" stroke="rgba(234, 240, 250, 0.32)" stroke-width="1"/><path d="M656.1 246.2L811.0 323.6" fill="none" stroke="#eaf0fa" stroke-width="1" stroke-dasharray="6 5" opacity="0.55"/><path d="M811.0 323.6L707.7 375.2" fill="none" stroke="#eaf0fa" stroke-width="1.6"/><path d="M707.7 375.2L552.9 297.8" fill="none" stroke="#eaf0fa" stroke-width="1.6"/><path d="M552.9 297.8L656.1 246.2" fill="none" stroke="#eaf0fa" stroke-width="1" stroke-dasharray="6 5" opacity="0.55"/><path d="M656.1 159.2L811.0 236.7" fill="none" stroke="#eaf0fa" stroke-width="1.6"/><path d="M811.0 236.7L707.7 288.3" fill="none" stroke="#eaf0fa" stroke-width="1.6"/><path d="M707.7 288.3L552.9 210.9" fill="none" stroke="#eaf0fa" stroke-width="1.6"/><path d="M552.9 210.9L656.1 159.2" fill="none" stroke="#eaf0fa" stroke-width="1.6"/><path d="M656.1 246.2L656.1 159.2" fill="none" stroke="#eaf0fa" stroke-width="1" stroke-dasharray="6 5" opacity="0.55"/><path d="M811.0 323.6L811.0 236.7" fill="none" stroke="#eaf0fa" stroke-width="1.6"/><path d="M707.7 375.2L707.7 288.3" fill="none" stroke="#eaf0fa" stroke-width="1.6"/><path d="M552.9 297.8L552.9 210.9" fill="none" stroke="#eaf0fa" stroke-width="1.6"/><text x="681.9" y="217.2" class="label">GITOPS</text><text x="630.3" y="297.4" class="stack">Crossplane / ArgoCD / Kyverno</text><path d="M552.9 210.9L552.9 120.0" fill="none" stroke="#ff7a1a" stroke-width="1.2"/><path d="M707.7 288.3L707.7 197.4" fill="none" stroke="#ff7a1a" stroke-width="1.2"/><path d="M552.9 120.0L707.7 197.4" fill="none" stroke="#ff7a1a" stroke-width="1.2"/><path d="M543.9 126.5L561.9 113.4" fill="none" stroke="#ff7a1a" stroke-width="1.2"/><path d="M698.7 204.0L716.8 190.9" fill="none" stroke="#ff7a1a" stroke-width="1.2"/><text x="630.3" y="143.3" class="value">32 ms</text><text x="630.3" y="156.5" class="measure">policy denial</text><path d="M927.1 381.6L1081.9 459.1" fill="none" stroke="#eaf0fa" stroke-width="1" stroke-dasharray="6 5" opacity="0.55"/><path d="M1081.9 459.1L978.7 510.7" fill="none" stroke="#eaf0fa" stroke-width="1.6"/><path d="M978.7 510.7L823.9 433.3" fill="none" stroke="#eaf0fa" stroke-width="1.6"/><path d="M823.9 433.3L927.1 381.6" fill="none" stroke="#eaf0fa" stroke-width="1" stroke-dasharray="6 5" opacity="0.55"/><path d="M927.1 294.7L1081.9 372.1" fill="none" stroke="#eaf0fa" stroke-width="1.6"/><path d="M1081.9 372.1L978.7 423.8" fill="none" stroke="#eaf0fa" stroke-width="1.6"/><path d="M978.7 423.8L823.9 346.3" fill="none" stroke="#eaf0fa" stroke-width="1.6"/><path d="M823.9 346.3L927.1 294.7" fill="none" stroke="#eaf0fa" stroke-width="1.6"/><path d="M927.1 381.6L927.1 294.7" fill="none" stroke="#eaf0fa" stroke-width="1" stroke-dasharray="6 5" opacity="0.55"/><path d="M1081.9 459.1L1081.9 372.1" fill="none" stroke="#eaf0fa" stroke-width="1.6"/><path d="M978.7 510.7L978.7 423.8" fill="none" stroke="#eaf0fa" stroke-width="1.6"/><path d="M823.9 433.3L823.9 346.3" fill="none" stroke="#eaf0fa" stroke-width="1.6"/><text x="952.9" y="352.6" class="label">OPERATOR</text><text x="901.3" y="432.9" class="stack">Go / kubebuilder</text><path d="M823.9 346.3L823.9 255.5" fill="none" stroke="#ff7a1a" stroke-width="1.2"/><path d="M978.7 423.8L978.7 332.9" fill="none" stroke="#ff7a1a" stroke-width="1.2"/><path d="M823.9 255.5L978.7 332.9" fill="none" stroke="#ff7a1a" stroke-width="1.2"/><path d="M814.8 262.0L832.9 248.9" fill="none" stroke="#ff7a1a" stroke-width="1.2"/><path d="M969.7 339.4L987.7 326.3" fill="none" stroke="#ff7a1a" stroke-width="1.2"/><text x="901.3" y="278.8" class="value">11s p50</text><text x="901.3" y="292.0" class="measure">claim to Ready</text><path d="M1198.1 517.1L1352.9 594.6" fill="none" stroke="#eaf0fa" stroke-width="1" stroke-dasharray="6 5" opacity="0.55"/><path d="M1352.9 594.6L1249.7 646.2" fill="none" stroke="#eaf0fa" stroke-width="1.6"/><path d="M1249.7 646.2L1094.8 568.7" fill="none" stroke="#eaf0fa" stroke-width="1.6"/><path d="M1094.8 568.7L1198.1 517.1" fill="none" stroke="#eaf0fa" stroke-width="1" stroke-dasharray="6 5" opacity="0.55"/><path d="M1198.1 430.2L1352.9 507.6" fill="none" stroke="#eaf0fa" stroke-width="1.6"/><path d="M1352.9 507.6L1249.7 559.3" fill="none" stroke="#eaf0fa" stroke-width="1.6"/><path d="M1249.7 559.3L1094.8 481.8" fill="none" stroke="#eaf0fa" stroke-width="1.6"/><path d="M1094.8 481.8L1198.1 430.2" fill="none" stroke="#eaf0fa" stroke-width="1.6"/><path d="M1198.1 517.1L1198.1 430.2" fill="none" stroke="#eaf0fa" stroke-width="1" stroke-dasharray="6 5" opacity="0.55"/><path d="M1352.9 594.6L1352.9 507.6" fill="none" stroke="#eaf0fa" stroke-width="1.6"/><path d="M1249.7 646.2L1249.7 559.3" fill="none" stroke="#eaf0fa" stroke-width="1.6"/><path d="M1094.8 568.7L1094.8 481.8" fill="none" stroke="#eaf0fa" stroke-width="1.6"/><text x="1223.9" y="488.1" class="label">SCHEDULER</text><text x="1172.3" y="568.4" class="stack">scheduler framework / Prometheus</text><path d="M1094.8 481.8L1094.8 391.0" fill="none" stroke="#ff7a1a" stroke-width="1.2"/><path d="M1249.7 559.3L1249.7 468.4" fill="none" stroke="#ff7a1a" stroke-width="1.2"/><path d="M1094.8 391.0L1249.7 468.4" fill="none" stroke="#ff7a1a" stroke-width="1.2"/><path d="M1085.8 397.5L1103.9 384.4" fill="none" stroke="#ff7a1a" stroke-width="1.2"/><path d="M1240.7 474.9L1258.7 461.8" fill="none" stroke="#ff7a1a" stroke-width="1.2"/><text x="1172.3" y="414.3" class="value">45.5%</text><text x="1172.3" y="427.5" class="measure">cheaper, same trace</text><path d="M901.3 665.5L1056.1 742.9" fill="none" stroke="#eaf0fa" stroke-width="1" stroke-dasharray="6 5" opacity="0.55"/><path d="M1056.1 742.9L952.9 794.6" fill="none" stroke="#eaf0fa" stroke-width="1.6"/><path d="M952.9 794.6L798.1 717.1" fill="none" stroke="#eaf0fa" stroke-width="1.6"/><path d="M798.1 717.1L901.3 665.5" fill="none" stroke="#eaf0fa" stroke-width="1" stroke-dasharray="6 5" opacity="0.55"/><path d="M901.3 578.6L1056.1 656.0" fill="none" stroke="#eaf0fa" stroke-width="1.6"/><path d="M1056.1 656.0L952.9 707.6" fill="none" stroke="#eaf0fa" stroke-width="1.6"/><path d="M952.9 707.6L798.1 630.2" fill="none" stroke="#eaf0fa" stroke-width="1.6"/><path d="M798.1 630.2L901.3 578.6" fill="none" stroke="#eaf0fa" stroke-width="1.6"/><path d="M901.3 665.5L901.3 578.6" fill="none" stroke="#eaf0fa" stroke-width="1" stroke-dasharray="6 5" opacity="0.55"/><path d="M1056.1 742.9L1056.1 656.0" fill="none" stroke="#eaf0fa" stroke-width="1.6"/><path d="M952.9 794.6L952.9 707.6" fill="none" stroke="#eaf0fa" stroke-width="1.6"/><path d="M798.1 717.1L798.1 630.2" fill="none" stroke="#eaf0fa" stroke-width="1.6"/><text x="927.1" y="636.5" class="label">DELIVERY</text><text x="875.5" y="716.8" class="stack">Istio / SPRT</text><path d="M798.1 630.2L798.1 539.3" fill="none" stroke="#ff7a1a" stroke-width="1.2"/><path d="M952.9 707.6L952.9 616.8" fill="none" stroke="#ff7a1a" stroke-width="1.2"/><path d="M798.1 539.3L952.9 616.8" fill="none" stroke="#ff7a1a" stroke-width="1.2"/><path d="M789.0 545.9L807.1 532.8" fill="none" stroke="#ff7a1a" stroke-width="1.2"/><path d="M943.9 623.3L961.9 610.2" fill="none" stroke="#ff7a1a" stroke-width="1.2"/><text x="875.5" y="562.7" class="value">50 s</text><text x="875.5" y="575.9" class="measure">regression to rollback</text><path d="M630.3 530.0L785.2 607.5" fill="none" stroke="#eaf0fa" stroke-width="1" stroke-dasharray="6 5" opacity="0.55"/><path d="M785.2 607.5L681.9 659.1" fill="none" stroke="#eaf0fa" stroke-width="1.6"/><path d="M681.9 659.1L527.1 581.7" fill="none" stroke="#eaf0fa" stroke-width="1.6"/><path d="M527.1 581.7L630.3 530.0" fill="none" stroke="#eaf0fa" stroke-width="1" stroke-dasharray="6 5" opacity="0.55"/><path d="M630.3 443.1L785.2 520.5" fill="none" stroke="#eaf0fa" stroke-width="1.6"/><path d="M785.2 520.5L681.9 572.2" fill="none" stroke="#eaf0fa" stroke-width="1.6"/><path d="M681.9 572.2L527.1 494.7" fill="none" stroke="#eaf0fa" stroke-width="1.6"/><path d="M527.1 494.7L630.3 443.1" fill="none" stroke="#eaf0fa" stroke-width="1.6"/><path d="M630.3 530.0L630.3 443.1" fill="none" stroke="#eaf0fa" stroke-width="1" stroke-dasharray="6 5" opacity="0.55"/><path d="M785.2 607.5L785.2 520.5" fill="none" stroke="#eaf0fa" stroke-width="1.6"/><path d="M681.9 659.1L681.9 572.2" fill="none" stroke="#eaf0fa" stroke-width="1.6"/><path d="M527.1 581.7L527.1 494.7" fill="none" stroke="#eaf0fa" stroke-width="1.6"/><text x="656.1" y="501.0" class="label">CHAOS</text><text x="604.5" y="581.3" class="stack">tc / iptables / lease</text><path d="M527.1 494.7L527.1 403.9" fill="none" stroke="#ff7a1a" stroke-width="1.2"/><path d="M681.9 572.2L681.9 481.3" fill="none" stroke="#ff7a1a" stroke-width="1.2"/><path d="M527.1 403.9L681.9 481.3" fill="none" stroke="#ff7a1a" stroke-width="1.2"/><path d="M518.1 410.4L536.1 397.3" fill="none" stroke="#ff7a1a" stroke-width="1.2"/><path d="M672.9 487.8L691.0 474.7" fill="none" stroke="#ff7a1a" stroke-width="1.2"/><text x="604.5" y="427.2" class="value">25 s</text><text x="604.5" y="440.4" class="measure">breach to abort</text><path d="M359.3 394.6L514.2 472.0" fill="none" stroke="#eaf0fa" stroke-width="1" stroke-dasharray="6 5" opacity="0.55"/><path d="M514.2 472.0L411.0 523.6" fill="none" stroke="#eaf0fa" stroke-width="1.6"/><path d="M411.0 523.6L256.1 446.2" fill="none" stroke="#eaf0fa" stroke-width="1.6"/><path d="M256.1 446.2L359.3 394.6" fill="none" stroke="#eaf0fa" stroke-width="1" stroke-dasharray="6 5" opacity="0.55"/><path d="M359.3 307.6L514.2 385.1" fill="none" stroke="#eaf0fa" stroke-width="1.6"/><path d="M514.2 385.1L411.0 436.7" fill="none" stroke="#eaf0fa" stroke-width="1.6"/><path d="M411.0 436.7L256.1 359.2" fill="none" stroke="#eaf0fa" stroke-width="1.6"/><path d="M256.1 359.2L359.3 307.6" fill="none" stroke="#eaf0fa" stroke-width="1.6"/><path d="M359.3 394.6L359.3 307.6" fill="none" stroke="#eaf0fa" stroke-width="1" stroke-dasharray="6 5" opacity="0.55"/><path d="M514.2 472.0L514.2 385.1" fill="none" stroke="#eaf0fa" stroke-width="1.6"/><path d="M411.0 523.6L411.0 436.7" fill="none" stroke="#eaf0fa" stroke-width="1.6"/><path d="M256.1 446.2L256.1 359.2" fill="none" stroke="#eaf0fa" stroke-width="1.6"/><text x="385.2" y="365.5" class="label">AUDIT</text><text x="333.5" y="445.8" class="stack">Spring / Kafka / Postgres</text><path d="M256.1 359.2L256.1 268.4" fill="none" stroke="#ff7a1a" stroke-width="1.2"/><path d="M411.0 436.7L411.0 345.8" fill="none" stroke="#ff7a1a" stroke-width="1.2"/><path d="M256.1 268.4L411.0 345.8" fill="none" stroke="#ff7a1a" stroke-width="1.2"/><path d="M247.1 274.9L265.2 261.8" fill="none" stroke="#ff7a1a" stroke-width="1.2"/><path d="M401.9 352.3L420.0 339.3" fill="none" stroke="#ff7a1a" stroke-width="1.2"/><text x="333.5" y="291.7" class="value">10 ms p50</text><text x="333.5" y="304.9" class="measure">actor, time-range query</text><path d="M759.4 305.9L875.5 364.0" fill="none" stroke="#eaf0fa" stroke-width="2.4"/><path d="M1030.3 441.4L1146.5 499.5" fill="none" stroke="#eaf0fa" stroke-width="2.4"/><path d="M1172.3 564.0L978.7 660.8" fill="none" stroke="#eaf0fa" stroke-width="2.4"/><path d="M849.7 647.9L733.5 589.8" fill="none" stroke="#eaf0fa" stroke-width="2.4"/><path d="M578.7 512.4L462.6 454.3" fill="none" stroke="#eaf0fa" stroke-width="2.4"/><circle cx="385.2" cy="415.6" r="5" fill="#ff7a1a"/><g class="tb"><rect x="892" y="880" width="680" height="92" fill="none" stroke="#eaf0fa" stroke-width="1.4"/><line x1="892" y1="926" x2="1572" y2="926" stroke="#eaf0fa"/><line x1="1052" y1="880" x2="1052" y2="972" stroke="#eaf0fa"/><line x1="1232" y1="926" x2="1232" y2="972" stroke="#eaf0fa"/><text x="904" y="898" class="tbk">PROJECT</text><text x="904" y="918" class="tbv big">KILN</text><text x="1064" y="898" class="tbk">TITLE</text><text x="1064" y="918" class="tbv">GENERAL ARRANGEMENT, REQUEST FLOW</text><text x="904" y="944" class="tbk">SHEET</text><text x="904" y="964" class="tbv">1 OF 6</text><text x="1064" y="944" class="tbk">REV</text><text x="1064" y="964" class="tbv">78e0a2a</text><text x="1244" y="944" class="tbk">CHECKED</text><text x="1244" y="964" class="tbv accent">CI RUN 34085396203</text></g><g transform="translate(742 910) rotate(-8)"><rect x="-62" y="-20" width="124" height="40" fill="none" stroke="#ff7a1a" stroke-width="2.5"/><text x="0" y="8" class="stamp">CHECKED</text></g></svg>
